<?xml version="1.0" encoding="UTF-8" standalone="no"?>
<!DOCTYPE svg PUBLIC "-//W3C//DTD SVG 1.1//EN" "http://www.w3.org/Graphics/SVG/1.1/DTD/svg11.dtd">
<svg width="100%" height="100%" viewBox="0 0 4000 4000" version="1.1" xmlns="http://www.w3.org/2000/svg" xmlns:xlink="http://www.w3.org/1999/xlink" xml:space="preserve" xmlns:serif="http://www.serif.com/" style="fill-rule:evenodd;clip-rule:evenodd;stroke-linejoin:round;stroke-miterlimit:2;">
    <g>
        <g transform="matrix(1.92826,0,0,1.92826,-2021.28,-818.237)">
            <path d="M2034.92,890.495L2373.35,1033.85L2831.37,1227.8C2930.42,1099.5 2994.17,717.874 2901.26,582.008C2873.2,541.018 2830.9,522.438 2770.94,539.961C2620.05,584.097 2378.83,831.767 2034.92,890.495Z" style="fill:rgb(249,164,41);fill-rule:nonzero;"/>
        </g>
        <g transform="matrix(1.92826,0,0,1.92826,-2021.28,-818.237)">
            <path d="M2443.32,769.666C2437.46,767.333 2431.47,765.036 2425.47,762.818C2481.52,730.772 2533.23,697.533 2581.02,666.817C2658.06,617.306 2724.59,574.545 2776.62,559.323C2789.74,555.485 2801.92,553.56 2813.23,553.56C2836.36,553.56 2855.8,561.629 2871.88,577.879C2869.08,578.135 2866.22,578.572 2863.29,579.208C2850.47,573.254 2836.12,570.07 2820.13,570.07C2807.08,570.07 2792.93,572.191 2777.65,576.66C2694.39,601.003 2583.66,687.308 2443.32,769.666Z" style="fill:rgb(252,210,148);fill-rule:nonzero;"/>
        </g>
        <g transform="matrix(1.92826,0,0,1.92826,-2021.28,-818.237)">
            <path d="M2846.49,1164.13C2844.13,1159.06 2841.73,1154 2839.27,1148.95C2876.61,1069.98 2898.57,944.356 2899.08,847.686C2899.73,725.67 2877.88,636.521 2843.41,620.568C2838.33,618.219 2832.91,617.041 2826.94,617.041C2817.71,617.041 2807.19,619.849 2794.64,625.491C2806.02,613.498 2816.16,603.972 2824.89,597.612C2838.68,587.555 2851.49,581.772 2863.29,579.208C2870.49,582.55 2877.2,586.766 2883.45,591.779C2883.86,592.35 2884.26,592.929 2884.66,593.512C2923.67,650.653 2936.24,767.191 2918.27,905.247C2905.4,1004.18 2878.75,1098.69 2846.49,1164.13Z" style="fill:rgb(174,114,63);fill-rule:nonzero;"/>
        </g>
        <g transform="matrix(1.92826,0,0,1.92826,-2021.28,-818.237)">
            <path d="M2883.45,591.779C2877.2,586.766 2870.49,582.55 2863.29,579.208C2866.22,578.572 2869.08,578.135 2871.88,577.879C2875.95,581.989 2879.8,586.62 2883.45,591.779Z" style="fill:rgb(176,147,138);fill-rule:nonzero;"/>
        </g>
        <g transform="matrix(1.92826,0,0,1.92826,-2021.28,-818.237)">
            <path d="M2831.37,1247.98C2827.07,1247.98 2822.73,1246.61 2819.06,1243.78C2810.25,1236.97 2808.62,1224.31 2815.42,1215.49C2861.07,1156.34 2901.45,1034.56 2918.27,905.247C2936.24,767.191 2923.67,650.653 2884.66,593.512C2859.46,556.608 2824.12,545.424 2776.62,559.323C2724.59,574.545 2658.06,617.306 2581.02,666.817C2438.58,758.366 2261.31,872.301 2038.3,910.396C2027.32,912.267 2016.91,904.891 2015.03,893.912C2013.16,882.934 2020.54,872.512 2031.52,870.638C2246.42,833.926 2419.86,722.455 2559.21,632.887C2638.88,581.686 2707.68,537.467 2765.3,520.61C2829.89,501.715 2882.67,519.063 2917.97,570.769C2963.07,636.834 2977.76,760.644 2958.27,910.451C2940.31,1048.43 2897.82,1174.76 2847.35,1240.14C2843.38,1245.28 2837.41,1247.98 2831.37,1247.98Z" style="fill:rgb(0,0,114);fill-rule:nonzero;"/>
        </g>
        <g transform="matrix(1.92826,0,0,1.92826,-2021.28,-818.237)">
            <path d="M2815.03,1157.87L2815.02,1157.93C2809.54,1167.73 2803.86,1176.36 2798.01,1183.53L2475.13,867.435C2668.1,740.947 2797.28,618.479 2836.04,636.431C2842.12,639.244 2848.28,646.854 2854.05,658.99C2869.53,691.457 2882.08,756.352 2881.6,847.618C2881.02,957.422 2853.83,1088.04 2815.03,1157.87Z" style="fill:rgb(255,243,233);fill-rule:nonzero;"/>
        </g>
        <g transform="matrix(1.92826,0,0,1.92826,-2021.28,-818.237)">
            <path d="M2726.47,973.435C2721.59,967.638 2716.6,961.899 2711.5,956.214C2715.44,952.137 2718.85,948.223 2721.55,944.57C2722.77,954.229 2724.43,963.848 2726.47,973.435ZM2687.55,930.756C2650.94,893.674 2609.28,859.53 2561.81,829.669C2563.24,828.661 2564.66,827.66 2566.09,826.655C2586.86,812.02 2605.87,798.294 2622.48,786.194C2629.56,784.939 2635.97,784.317 2641.62,784.317C2652.83,784.317 2661.02,786.774 2665.43,791.608C2670.78,797.494 2671.04,801.675 2670.77,804.307C2669.81,813.788 2659.61,825.661 2640.46,839.594C2635.97,842.855 2627.63,848.927 2630.13,860.321C2631.61,867.106 2637.03,872.417 2643.84,873.783C2644.12,873.839 2644.92,873.976 2646.19,874.131C2672.84,877.376 2692.87,886.009 2698.45,896.66C2701.59,902.667 2700.36,911.089 2694.79,921.691C2693.62,923.896 2691.14,926.984 2687.55,930.756ZM2721.3,868.921C2711.77,858.589 2698.58,851.725 2685.33,847.163C2695.11,836.737 2704.01,823.367 2705.59,807.864C2706.6,797.974 2704.95,783.039 2691.31,768.043C2685.01,761.141 2677.09,756.144 2667.59,753.06C2668.86,752.121 2670.12,751.19 2671.38,750.262C2714.7,718.302 2752.12,690.702 2780.74,673.008C2810.93,654.338 2822.94,652.096 2826.96,652.096C2827.96,652.096 2828.47,652.236 2828.64,652.295C2831.09,653.67 2834.77,658.729 2838.84,667.854C2826.51,676.645 2811.39,690.866 2792.88,712.838C2749.94,763.849 2728.01,816.434 2721.3,868.921Z" style="fill:rgb(178,170,197);fill-rule:nonzero;"/>
        </g>
        <g transform="matrix(1.92826,0,0,1.92826,-2021.28,-818.237)">
            <path d="M2502.87,870.093L2795.52,1156.63C2833.63,1094.31 2863.47,962.753 2864.08,847.499C2864.78,715.682 2837.96,657.507 2828.64,652.295C2827.81,651.999 2818.46,649.681 2780.74,673.008C2752.12,690.702 2714.7,718.302 2671.38,750.262C2624.44,784.893 2566.99,827.268 2502.87,870.093ZM2797.99,1201.04C2793.43,1201.04 2789.03,1199.26 2785.75,1196.05L2462.91,879.953C2459.12,876.247 2457.22,871.025 2457.74,865.752C2458.25,860.479 2461.13,855.722 2465.56,852.817C2536.18,806.504 2596.97,761.66 2650.6,722.096C2763.64,638.713 2810.83,605.48 2843.41,620.568C2877.88,636.521 2899.73,725.67 2899.08,847.686C2898.45,966.291 2865.54,1128.48 2811.55,1194.61C2808.44,1198.42 2803.87,1200.74 2798.96,1201.02C2798.64,1201.03 2798.31,1201.04 2797.99,1201.04Z" style="fill:rgb(0,0,114);fill-rule:nonzero;"/>
        </g>
        <g transform="matrix(1.92826,0,0,1.92826,-2021.28,-818.237)">
            <path d="M2710.27,929.854L2710.31,929.854L2710.27,929.854ZM2502.85,870.083L2620.21,984.967C2659.32,958.055 2689.65,931.37 2694.79,921.691C2700.36,911.089 2701.59,902.667 2698.45,896.66C2692.87,886.009 2672.84,877.376 2646.19,874.131C2644.92,873.976 2644.12,873.839 2643.84,873.783C2637.03,872.417 2631.61,867.106 2630.13,860.321C2627.63,848.927 2635.97,842.855 2640.46,839.594C2659.61,825.661 2669.81,813.788 2670.77,804.307C2671.04,801.675 2670.78,797.494 2665.43,791.608C2658.8,784.341 2643.63,782.445 2622.48,786.194C2590.14,809.752 2548.73,839.466 2502.85,870.083ZM2618.16,1024.95C2613.7,1024.95 2609.28,1023.25 2605.92,1019.95L2462.89,879.939C2459.1,876.231 2457.2,871.007 2457.71,865.732C2458.23,860.457 2461.11,855.7 2465.54,852.796C2519.52,817.437 2568.45,782.277 2605.05,755.595C2607.08,754.107 2609.42,753.078 2611.9,752.58C2648.5,745.206 2675.23,750.405 2691.31,768.043C2704.95,783.039 2706.6,797.974 2705.59,807.864C2704.01,823.367 2695.11,836.737 2685.33,847.163C2702.98,853.241 2720.54,863.41 2729.45,880.418C2735.51,891.977 2739.78,911.35 2725.75,938.004L2725.74,938.032C2713.26,961.633 2658.3,1001.96 2627.79,1022.06C2624.85,1024 2621.49,1024.95 2618.16,1024.95Z" style="fill:rgb(0,0,114);fill-rule:nonzero;"/>
        </g>
        <g transform="matrix(1.92826,0,0,1.92826,-2021.28,-818.237)">
            <path d="M2135.95,890.495L1797.52,1033.85L1339.5,1227.8C1240.45,1099.5 1176.7,717.874 1269.61,582.008C1297.67,541.018 1339.97,522.438 1399.93,539.961C1550.82,584.097 1792.04,831.767 2135.95,890.495Z" style="fill:rgb(249,164,41);fill-rule:nonzero;"/>
        </g>
        <g transform="matrix(1.92826,0,0,1.92826,-2021.28,-818.237)">
            <path d="M1727.55,769.666C1587.23,687.316 1476.47,601.001 1393.22,576.66C1377.94,572.191 1363.79,570.07 1350.74,570.07C1334.75,570.07 1320.4,573.254 1307.58,579.208C1304.65,578.572 1301.79,578.135 1298.99,577.879C1315.08,561.628 1334.51,553.561 1357.65,553.561C1368.95,553.561 1381.13,555.486 1394.25,559.323C1446.28,574.545 1512.81,617.305 1589.85,666.817C1637.64,697.533 1689.35,730.773 1745.4,762.818C1739.39,765.037 1733.41,767.333 1727.55,769.666Z" style="fill:rgb(252,210,148);fill-rule:nonzero;"/>
        </g>
        <g transform="matrix(1.92826,0,0,1.92826,-2021.28,-818.237)">
            <path d="M1324.37,1164.12C1292.12,1098.68 1265.47,1004.17 1252.6,905.247C1234.63,767.191 1247.2,650.653 1286.21,593.512C1286.61,592.929 1287.01,592.349 1287.42,591.779C1293.67,586.765 1300.38,582.55 1307.58,579.208C1319.38,581.772 1332.19,587.555 1345.98,597.612C1354.7,603.969 1364.84,613.489 1376.21,625.473C1363.68,619.843 1353.16,617.039 1343.95,617.039C1337.97,617.039 1332.54,618.218 1327.46,620.568C1292.99,636.521 1271.14,725.67 1271.78,847.687C1272.3,944.349 1294.26,1069.97 1331.6,1148.93C1329.14,1153.99 1326.73,1159.05 1324.37,1164.12Z" style="fill:rgb(174,114,63);fill-rule:nonzero;"/>
        </g>
        <g transform="matrix(1.92826,0,0,1.92826,-2021.28,-818.237)">
            <path d="M1287.42,591.779C1291.06,586.62 1294.92,581.989 1298.99,577.879C1301.79,578.135 1304.65,578.572 1307.58,579.208C1300.38,582.55 1293.67,586.765 1287.42,591.779Z" style="fill:rgb(176,147,138);fill-rule:nonzero;"/>
        </g>
        <g transform="matrix(1.92826,0,0,1.92826,-2021.28,-818.237)">
            <path d="M1339.5,1247.98C1333.46,1247.98 1327.49,1245.29 1323.52,1240.14C1273.05,1174.76 1230.55,1048.43 1212.6,910.451C1193.11,760.644 1207.8,636.834 1252.9,570.769C1288.2,519.064 1340.99,501.72 1405.57,520.609C1463.19,537.467 1531.99,581.686 1611.65,632.887C1751.01,722.455 1924.45,833.926 2139.35,870.638C2150.33,872.512 2157.71,882.934 2155.84,893.912C2153.96,904.891 2143.53,912.27 2132.57,910.396C1909.55,872.301 1732.28,758.366 1589.85,666.817C1512.81,617.305 1446.28,574.545 1394.25,559.323C1346.75,545.426 1311.4,556.61 1286.21,593.512C1247.2,650.653 1234.63,767.191 1252.6,905.247C1269.42,1034.56 1309.8,1156.34 1355.45,1215.49C1362.25,1224.31 1360.62,1236.97 1351.81,1243.78C1348.14,1246.61 1343.8,1247.98 1339.5,1247.98Z" style="fill:rgb(0,0,114);fill-rule:nonzero;"/>
        </g>
        <g transform="matrix(1.92826,0,0,1.92826,-2021.28,-818.237)">
            <path d="M1355.84,1157.87L1355.85,1157.93C1361.33,1167.73 1367.01,1176.36 1372.86,1183.53L1695.74,867.435C1502.77,740.947 1373.59,618.479 1334.83,636.431C1328.75,639.244 1322.59,646.854 1316.82,658.99C1301.33,691.457 1288.79,756.352 1289.27,847.618C1289.85,957.422 1317.04,1088.04 1355.84,1157.87Z" style="fill:rgb(255,243,233);fill-rule:nonzero;"/>
        </g>
        <g transform="matrix(1.92826,0,0,1.92826,-2021.28,-818.237)">
            <path d="M1444.4,973.417C1446.44,963.836 1448.1,954.222 1449.32,944.569C1452.02,948.22 1455.43,952.133 1459.36,956.208C1454.26,961.9 1449.29,967.613 1444.4,973.417ZM1483.32,930.751C1479.73,926.981 1477.25,923.895 1476.08,921.691C1470.51,911.089 1469.28,902.667 1472.42,896.66C1478,886.009 1498.03,877.376 1524.68,874.131C1525.95,873.976 1526.75,873.839 1527.03,873.783C1533.84,872.417 1539.26,867.106 1540.74,860.321C1543.24,848.927 1534.9,842.855 1530.41,839.594C1511.26,825.661 1501.06,813.788 1500.1,804.307C1499.83,801.675 1500.09,797.494 1505.43,791.622C1509.85,786.778 1518.04,784.318 1529.26,784.318C1534.91,784.318 1541.31,784.941 1548.39,786.195C1565.41,798.591 1584.94,812.692 1606.31,827.731C1607.23,828.378 1608.14,829.021 1609.06,829.669C1609.03,829.688 1609.03,829.689 1609,829.708C1608.95,829.743 1608.88,829.785 1608.82,829.82C1608.77,829.857 1608.68,829.908 1608.63,829.944C1608.55,829.992 1608.47,830.041 1608.4,830.088C1608.37,830.106 1608.33,830.133 1608.3,830.151C1561.15,859.892 1519.73,893.875 1483.32,930.751ZM1449.57,868.921C1442.86,816.434 1420.93,763.849 1377.99,712.838C1359.47,690.85 1344.34,676.625 1332,667.835C1336.05,658.745 1339.7,653.706 1342.12,652.348C1342.32,652.278 1342.86,652.124 1343.92,652.124C1348.07,652.124 1360.11,654.446 1390.13,673.008C1418.75,690.702 1456.16,718.302 1499.49,750.262C1500.75,751.19 1502.01,752.121 1503.28,753.06C1493.78,756.146 1485.85,761.148 1479.55,768.056C1465.92,783.039 1464.27,797.974 1465.28,807.864C1466.86,823.367 1475.76,836.737 1485.54,847.163C1472.29,851.725 1459.1,858.59 1449.57,868.921Z" style="fill:rgb(178,170,197);fill-rule:nonzero;"/>
        </g>
        <g transform="matrix(1.92826,0,0,1.92826,-2021.28,-818.237)">
            <path d="M1343.92,652.124C1342.86,652.124 1342.32,652.278 1342.12,652.348C1332.91,657.507 1306.09,715.682 1306.79,847.5C1307.4,962.753 1337.24,1094.31 1375.35,1156.63L1668,870.093C1603.88,827.268 1546.43,784.893 1499.49,750.262C1456.16,718.302 1418.75,690.702 1390.13,673.008C1360.11,654.446 1348.07,652.124 1343.92,652.124ZM1372.88,1201.04C1372.56,1201.04 1372.23,1201.03 1371.91,1201.02C1367,1200.74 1362.43,1198.42 1359.32,1194.61C1305.34,1128.48 1272.42,966.291 1271.78,847.687C1271.14,725.67 1292.99,636.521 1327.46,620.568C1360.08,605.472 1407.24,638.718 1520.27,722.096C1573.9,761.66 1634.69,806.504 1705.31,852.817C1709.74,855.722 1712.62,860.479 1713.13,865.752C1713.65,871.025 1711.75,876.247 1707.96,879.953L1385.12,1196.05C1381.84,1199.26 1377.44,1201.04 1372.88,1201.04Z" style="fill:rgb(0,0,114);fill-rule:nonzero;"/>
        </g>
        <g transform="matrix(1.92826,0,0,1.92826,-2021.28,-818.237)">
            <path d="M1476.08,921.691C1481.22,931.37 1511.55,958.055 1550.66,984.967L1668.02,870.083C1622.14,839.466 1580.73,809.752 1548.39,786.195C1527.25,782.446 1512.07,784.342 1505.43,791.622C1500.09,797.494 1499.83,801.675 1500.1,804.307C1501.06,813.788 1511.26,825.661 1530.41,839.594C1534.9,842.855 1543.24,848.927 1540.74,860.321C1539.26,867.106 1533.84,872.417 1527.03,873.783C1526.75,873.839 1525.95,873.976 1524.68,874.131C1498.03,877.376 1478,886.009 1472.42,896.66C1469.28,902.667 1470.51,911.089 1476.08,921.691ZM1552.71,1024.95C1549.38,1024.95 1546.03,1024 1543.08,1022.06C1512.57,1001.96 1457.6,961.633 1445.13,938.032L1445.11,938.004C1431.09,911.35 1435.36,891.977 1441.42,880.418C1450.33,863.41 1467.89,853.241 1485.54,847.163C1475.76,836.737 1466.86,823.367 1465.28,807.864C1464.27,797.974 1465.92,783.039 1479.55,768.056C1495.64,750.405 1522.35,745.204 1558.97,752.58C1561.45,753.078 1563.79,754.107 1565.82,755.595C1602.42,782.277 1651.35,817.437 1705.33,852.796C1709.76,855.7 1712.64,860.457 1713.16,865.732C1713.68,871.007 1711.77,876.231 1707.98,879.939L1564.95,1019.95C1561.58,1023.25 1557.17,1024.95 1552.71,1024.95Z" style="fill:rgb(0,0,114);fill-rule:nonzero;"/>
        </g>
        <g transform="matrix(1.92826,0,0,1.92826,-2021.28,-818.237)">
            <path d="M2990.5,2056.15C2780.72,2394.57 2218.67,2404.42 2085.43,2404.42C1952.2,2404.42 1390.15,2394.57 1180.36,2056.15C1093.69,1916.29 1118.04,1801.22 1152.08,1731.24C1171.61,1691.02 1194.32,1665.64 1201.05,1658.96C1230.32,1486.38 1266.6,707.217 2085.43,707.217C2904.27,707.217 2940.55,1486.38 2969.82,1658.96C2976.55,1665.64 2999.26,1691.02 3018.79,1731.24C3052.83,1801.22 3077.17,1916.29 2990.5,2056.15Z" style="fill:rgb(249,164,41);fill-rule:nonzero;"/>
        </g>
        <g transform="matrix(1.92826,0,0,1.92826,-2021.28,-818.237)">
            <path d="M1270.85,1303.7C1280.35,1273.21 1291.28,1242.18 1303.93,1211.07L1303.93,1211.08C1291.3,1242.15 1280.36,1273.19 1270.87,1303.64C1270.86,1303.66 1270.85,1303.68 1270.85,1303.7Z" style="fill:rgb(163,245,240);fill-rule:nonzero;"/>
        </g>
        <g transform="matrix(1.92826,0,0,1.92826,-2021.28,-818.237)">
            <path d="M1324.38,1164.13L1324.37,1164.12C1326.73,1159.05 1329.14,1153.99 1331.6,1148.93L1331.6,1148.95C1329.14,1154 1326.74,1159.06 1324.38,1164.13Z" style="fill:rgb(215,185,159);fill-rule:nonzero;"/>
        </g>
        <g transform="matrix(1.92826,0,0,1.92826,-2021.28,-818.237)">
            <path d="M1303.93,1211.08L1303.93,1211.07C1310.29,1195.42 1317.1,1179.73 1324.37,1164.12L1324.38,1164.13C1317.1,1179.76 1310.31,1195.42 1303.93,1211.08Z" style="fill:rgb(128,128,185);fill-rule:nonzero;"/>
        </g>
        <g transform="matrix(1.92826,0,0,1.92826,-2021.28,-818.237)">
            <path d="M1352.46,1108.55C1352.45,1108.55 1352.45,1108.54 1352.45,1108.54C1378.06,1061.77 1408.38,1016.14 1444.4,973.417L1444.4,973.435C1408.39,1016.15 1378.06,1061.79 1352.46,1108.55Z" style="fill:rgb(255,249,244);fill-rule:nonzero;"/>
        </g>
        <g transform="matrix(1.92826,0,0,1.92826,-2021.28,-818.237)">
            <path d="M1444.4,973.435L1444.4,973.417C1449.29,967.613 1454.26,961.9 1459.36,956.208C1459.36,956.21 1459.37,956.212 1459.37,956.214C1454.27,961.899 1449.28,967.639 1444.4,973.435ZM1483.32,930.756L1483.32,930.751C1519.73,893.875 1561.15,859.892 1608.3,830.151C1561.15,859.893 1519.73,893.879 1483.32,930.756Z" style="fill:rgb(217,213,226);fill-rule:nonzero;"/>
        </g>
        <g transform="matrix(1.92826,0,0,1.92826,-2021.28,-818.237)">
            <path d="M1331.6,1148.95L1331.6,1148.93C1338.17,1135.41 1345.12,1121.92 1352.45,1108.54C1352.45,1108.54 1352.45,1108.55 1352.46,1108.55C1345.13,1121.93 1338.18,1135.43 1331.6,1148.95Z" style="fill:rgb(128,128,185);fill-rule:nonzero;"/>
        </g>
        <g transform="matrix(1.92826,0,0,1.92826,-2021.28,-818.237)">
            <path d="M1459.37,956.214C1459.37,956.212 1459.36,956.21 1459.36,956.208C1467.09,947.594 1475.09,939.084 1483.32,930.751L1483.32,930.756C1475.08,939.108 1467.11,947.58 1459.37,956.214Z" style="fill:rgb(128,128,185);fill-rule:nonzero;"/>
        </g>
        <g transform="matrix(1.92826,0,0,1.92826,-2021.28,-818.237)">
            <path d="M1608.4,830.088C1608.47,830.041 1608.55,829.992 1608.63,829.944C1608.54,830 1608.49,830.033 1608.4,830.088ZM1608.82,829.82C1608.88,829.785 1608.95,829.743 1609,829.708C1608.94,829.744 1608.88,829.784 1608.82,829.82Z" style="fill:rgb(217,213,226);fill-rule:nonzero;"/>
        </g>
        <g transform="matrix(1.92826,0,0,1.92826,-2021.28,-818.237)">
            <path d="M1270.87,1303.64C1280.36,1273.19 1291.3,1242.15 1303.93,1211.08C1310.31,1195.42 1317.1,1179.76 1324.38,1164.13C1326.74,1159.06 1329.14,1154 1331.6,1148.95C1338.18,1135.43 1345.13,1121.93 1352.46,1108.55C1378.06,1061.79 1408.39,1016.15 1444.4,973.435C1449.28,967.639 1454.27,961.899 1459.37,956.214C1467.11,947.58 1475.08,939.108 1483.32,930.756C1519.73,893.879 1561.15,859.893 1608.3,830.151C1608.34,830.128 1608.36,830.111 1608.4,830.088C1608.49,830.033 1608.54,830 1608.63,829.944C1608.7,829.897 1608.75,829.867 1608.82,829.82C1608.88,829.784 1608.94,829.744 1609,829.708C1727.61,755.087 1882.48,707.231 2085.41,707.231C2610.42,707.231 2813.75,1027.54 2899.76,1302.93C2799.8,1037.23 2583.39,756.915 2085.41,756.915C1587.03,756.915 1370.68,1037.73 1270.87,1303.64Z" style="fill:rgb(252,210,148);fill-rule:nonzero;"/>
        </g>
        <g transform="matrix(1.92826,0,0,1.92826,-2021.28,-818.237)">
            <path d="M1632.64,1199.87C1626.6,1165.55 1728.7,1056.46 1790.25,1086.37C1851.81,1116.29 1842.26,1189.56 1804.98,1209.77C1750.83,1239.13 1638.68,1234.19 1632.64,1199.87Z" style="fill:rgb(255,243,233);fill-rule:nonzero;"/>
        </g>
        <g transform="matrix(1.92826,0,0,1.92826,-2021.28,-818.237)">
            <path d="M2538.23,1199.87C2544.27,1165.55 2442.17,1056.46 2380.62,1086.37C2319.06,1116.29 2328.61,1189.56 2365.89,1209.77C2420.04,1239.13 2532.19,1234.19 2538.23,1199.87Z" style="fill:rgb(255,243,233);fill-rule:nonzero;"/>
        </g>
        <g transform="matrix(1.92826,0,0,1.92826,-2021.28,-818.237)">
            <path d="M2990.5,2056.13C2780.77,2394.47 2218.93,2404.42 2085.51,2404.42L2085.41,2404.42C1952.04,2404.42 1390.2,2394.47 1180.48,2056.13C1093.76,1916.28 1118.11,1801.23 1152.15,1731.26C1225.8,1640.31 1355.59,1553.59 1555.11,1644.8C1622.68,1675.73 1665.56,1739.58 1779.12,1711.3C1839.3,1696.3 1923.72,1580.44 2085.41,1580.39L2085.51,1580.39C2247.21,1580.44 2331.63,1696.3 2391.85,1711.3C2505.42,1739.58 2548.29,1675.73 2615.86,1644.8C2815.38,1553.59 2945.12,1640.31 3018.77,1731.26C3052.82,1801.23 3077.16,1916.28 2990.5,2056.13Z" style="fill:rgb(255,243,233);fill-rule:nonzero;"/>
        </g>
        <g transform="matrix(1.92826,0,0,1.92826,-2021.28,-818.237)">
            <path d="M3049.3,1845.38C3048.43,1831.96 3046.69,1819.14 3044.29,1806.95C3045.62,1800.03 3046.7,1793.22 3047.55,1786.52C3049.92,1804.92 3050.71,1824.58 3049.3,1845.38Z" style="fill:rgb(50,164,191);fill-rule:nonzero;"/>
        </g>
        <g transform="matrix(1.92826,0,0,1.92826,-2021.28,-818.237)">
            <path d="M3049.29,1845.48C3048.42,1832.05 3046.68,1819.19 3044.28,1806.99C3044.28,1806.97 3044.29,1806.96 3044.29,1806.95C3046.69,1819.14 3048.43,1831.96 3049.3,1845.38C3049.3,1845.42 3049.29,1845.45 3049.29,1845.48Z" style="fill:rgb(174,114,63);fill-rule:nonzero;"/>
        </g>
        <g transform="matrix(1.92826,0,0,1.92826,-2021.28,-818.237)">
            <path d="M1121.66,1844.05C1120.37,1823.74 1121.17,1804.53 1123.49,1786.52C1124.32,1793.08 1125.38,1799.73 1126.67,1806.49C1124.3,1818.42 1122.57,1830.95 1121.66,1844.05Z" style="fill:rgb(50,164,191);fill-rule:nonzero;"/>
        </g>
        <g transform="matrix(1.92826,0,0,1.92826,-2021.28,-818.237)">
            <path d="M1121.69,1844.57C1121.68,1844.4 1121.67,1844.22 1121.66,1844.05C1122.57,1830.95 1124.3,1818.42 1126.67,1806.49C1126.68,1806.55 1126.69,1806.61 1126.7,1806.67C1124.32,1818.7 1122.59,1831.35 1121.69,1844.57Z" style="fill:rgb(174,114,63);fill-rule:nonzero;"/>
        </g>
        <g transform="matrix(1.92826,0,0,1.92826,-2021.28,-818.237)">
            <path d="M2085.52,2364.43C1952.29,2364.43 1390.24,2354.59 1180.45,2016.16C1141.55,1953.34 1125.02,1895.53 1121.69,1844.57C1122.59,1831.35 1124.32,1818.7 1126.7,1806.67C1134.54,1847.52 1151.15,1891.97 1180.45,1939.23C1390.24,2277.65 1952.29,2287.5 2085.52,2287.5C2218.76,2287.5 2780.81,2277.65 2990.59,1939.23C3019.82,1892.09 3036.42,1847.75 3044.28,1806.99C3046.68,1819.19 3048.42,1832.05 3049.29,1845.48C3045.83,1896.22 3029.26,1953.72 2990.59,2016.16C2780.81,2354.59 2218.76,2364.43 2085.52,2364.43Z" style="fill:rgb(178,170,197);fill-rule:nonzero;"/>
        </g>
        <g transform="matrix(1.92826,0,0,1.92826,-2021.28,-818.237)">
            <path d="M2094.99,1809.83L2092.58,1810.21L2092.58,1809.45L2094.99,1809.83Z" style="fill:rgb(81,39,23);fill-rule:nonzero;"/>
        </g>
        <g transform="matrix(1.92826,0,0,1.92826,-2021.28,-818.237)">
            <path d="M2097.34,1809.45L2097.34,1810.21L2094.99,1809.83L2097.34,1809.45Z" style="fill:rgb(81,39,23);fill-rule:nonzero;"/>
        </g>
        <g transform="matrix(1.92826,0,0,1.92826,-2021.28,-818.237)">
            <path d="M1506.05,895.303C1543.53,858.679 1585.72,826.652 1630.92,799.556C1676.22,772.601 1724.57,750.644 1774.64,734.017C1824.64,717.117 1876.34,705.762 1928.38,698.149C1980.47,690.669 2033.01,687.551 2085.43,687.073C2137.87,687.427 2190.39,690.722 2242.51,698.042C2294.54,705.716 2346.26,716.967 2396.27,733.903C2446.34,750.547 2494.7,772.49 2540,799.464C2585.19,826.602 2627.38,858.627 2664.81,895.304C2668.73,899.14 2668.79,905.423 2664.96,909.337C2661.34,913.029 2655.55,913.296 2651.62,910.1L2651.52,910.019C2612.09,877.756 2569.99,849.18 2525.27,825.573C2480.7,801.741 2433.68,782.765 2385.37,768.132C2336.98,753.739 2287.39,743.235 2237.16,737.004C2186.97,730.402 2136.24,727.545 2085.43,727.36C2034.62,727.421 1983.91,730.455 1933.7,736.896C1883.47,743.189 1833.85,753.588 1785.46,768.018C1737.15,782.667 1690.13,801.63 1645.55,825.481C1600.85,849.129 1558.73,877.703 1519.35,910.019L1519.29,910.072C1515.05,913.548 1508.8,912.932 1505.32,908.695C1502.04,904.694 1502.43,898.864 1506.05,895.303Z" style="fill:rgb(0,0,114);fill-rule:nonzero;"/>
        </g>
        <g transform="matrix(1.92826,0,0,1.92826,-2021.28,-818.237)">
            <path d="M1949,2409.89C1839.92,2406.22 1730.74,2392.41 1623.99,2365.59C1570.71,2351.91 1518.05,2334.9 1467.08,2313.12C1416.06,2291.53 1366.81,2264.93 1321.07,2232.67C1275.38,2200.45 1233.22,2162.33 1197.85,2118.19C1162.55,2074.16 1133.64,2024.39 1116.05,1969.44C1098.36,1914.78 1093.93,1854.52 1106.68,1797.68C1109.72,1783.47 1113.84,1769.51 1118.82,1755.91C1123.78,1742.3 1129.53,1728.98 1136.22,1716.17C1142.9,1703.35 1150.29,1690.91 1158.58,1679.04C1162.79,1673.13 1167.07,1667.28 1171.72,1661.61C1176.4,1655.88 1181.02,1650.49 1186.85,1644.68L1186.85,1644.67L1181.18,1655.61C1183.14,1642.47 1184.59,1628.79 1186.35,1615.14L1191.54,1573.93C1195.03,1546.37 1198.99,1518.74 1203.79,1491.21C1213.25,1436.13 1225.36,1381.29 1241.24,1327.41C1249.16,1300.47 1257.92,1273.74 1267.81,1247.41C1277.62,1221.05 1288.34,1194.99 1300.31,1169.48C1324.24,1118.54 1353.77,1069.79 1390.84,1027.33C1394.46,1023.18 1400.76,1022.75 1404.92,1026.37C1408.45,1029.45 1409.29,1034.47 1407.23,1038.45L1407.16,1038.6C1394.57,1063.07 1382,1087.19 1370.07,1111.6C1358.24,1136.04 1347,1160.71 1336.38,1185.64C1314.73,1235.35 1297.64,1287.01 1282.83,1339.3C1268.32,1391.71 1256.74,1445 1247.15,1498.78C1242.39,1525.69 1238.04,1552.71 1233.88,1579.88C1229.67,1607.11 1226.21,1634.25 1220.95,1662.35L1220.87,1662.78C1220.09,1666.94 1218.08,1670.54 1215.28,1673.29C1211.58,1677.15 1207.41,1682.12 1203.64,1687C1199.79,1691.91 1196.17,1697.11 1192.61,1702.33C1185.62,1712.88 1179.17,1723.84 1173.48,1735.18C1167.74,1746.5 1162.87,1758.23 1158.69,1770.16C1154.48,1782.09 1151.05,1794.27 1148.58,1806.64C1138.26,1856.02 1141.57,1907.77 1157.43,1956.27C1173,2004.84 1199.57,2050.45 1231.49,2091.46C1263.64,2132.42 1302.4,2168.28 1345.06,2199.01C1430.75,2260.44 1530.47,2302.08 1633.17,2331.74C1684.6,2346.67 1737.06,2358.65 1790.06,2367.98C1816.58,2372.54 1843.16,2377.01 1869.89,2380.6C1896.62,2384.22 1923.43,2387.33 1950.31,2390.1L1950.35,2390.1C1955.8,2390.66 1959.76,2395.54 1959.2,2400.99C1958.66,2406.2 1954.15,2410.05 1949,2409.89Z" style="fill:rgb(0,0,114);fill-rule:nonzero;"/>
        </g>
        <g transform="matrix(1.92826,0,0,1.92826,-2021.28,-818.237)">
            <path d="M2780.03,1027.33C2817.49,1069.53 2847.04,1118.35 2870.71,1169.41C2894.5,1220.51 2913.89,1273.5 2929.71,1327.39C2937.69,1354.32 2944.65,1381.51 2950.79,1408.85C2957,1436.18 2962.45,1463.65 2967.11,1491.2C2971.89,1518.74 2975.86,1546.36 2979.44,1573.92C2983.09,1601.39 2985.97,1629.18 2989.69,1655.61L2984.02,1644.67L2984.02,1644.68C2989.82,1650.46 2994.43,1655.83 2999.09,1661.53C3003.72,1667.17 3007.98,1672.99 3012.17,1678.87C3020.44,1690.68 3027.8,1703.06 3034.46,1715.81C3041.14,1728.56 3046.87,1741.8 3051.84,1755.33C3056.86,1768.85 3060.94,1782.75 3064.02,1796.88C3076.85,1853.41 3072.71,1913.41 3055.34,1967.9C3046.76,1995.25 3035.18,2021.4 3021.57,2046.21C3007.85,2070.94 2992,2094.29 2974.53,2116.35C2939.47,2160.4 2897.73,2198.58 2852.38,2230.86C2806.98,2263.16 2758.1,2289.94 2707.33,2311.49C2656.62,2333.21 2604.33,2350.47 2551.37,2364.39C2445.21,2391.52 2336.56,2405.53 2228,2409.47C2222.53,2409.67 2217.93,2405.39 2217.73,2399.92C2217.54,2394.69 2221.43,2390.25 2226.55,2389.69L2226.63,2389.69C2253.37,2386.83 2280.05,2383.64 2306.63,2379.94C2333.22,2376.26 2359.66,2371.75 2386.04,2367.1C2438.76,2357.66 2490.9,2345.47 2542.06,2330.52C2644.29,2301.04 2743.17,2258.63 2828.2,2197.26C2870.52,2166.5 2908.87,2130.59 2940.73,2089.73C2972.33,2048.78 2998.64,2003.32 3013.89,1954.9C3029.46,1906.58 3032.5,1855.07 3022.14,1805.94C3019.63,1793.65 3016.24,1781.51 3012,1769.66C3007.81,1757.79 3002.95,1746.12 2997.23,1734.86C2991.55,1723.58 2985.12,1712.68 2978.16,1702.18C2974.61,1696.99 2971.02,1691.82 2967.17,1686.93C2963.42,1682.08 2959.27,1677.13 2955.59,1673.29C2952.57,1670.32 2950.7,1666.61 2949.99,1662.74L2949.92,1662.35C2944.71,1634.24 2941.08,1607.13 2936.88,1579.89C2932.81,1552.71 2928.47,1525.69 2923.69,1498.79C2918.83,1471.91 2913.6,1445.13 2907.69,1418.53C2901.7,1391.96 2895.24,1365.51 2887.96,1339.32C2873.14,1287.04 2856.01,1235.4 2834.34,1185.71C2823.53,1160.87 2812.33,1136.2 2800.47,1111.78C2788.59,1087.36 2776.09,1063.22 2763.71,1038.6L2763.64,1038.45C2761.16,1033.52 2763.15,1027.51 2768.07,1025.04C2772.21,1022.96 2777.1,1024.03 2780.03,1027.33Z" style="fill:rgb(0,0,114);fill-rule:nonzero;"/>
        </g>
        <g transform="matrix(1.92826,0,0,1.92826,-2021.28,-818.237)">
            <path d="M1587.01,1851.57C1587.01,1928.43 1499.96,1990.74 1392.58,1990.74C1285.2,1990.74 1198.15,1928.43 1198.15,1851.57C1198.15,1774.71 1285.2,1712.4 1392.58,1712.4C1499.96,1712.4 1587.01,1774.71 1587.01,1851.57Z" style="fill:rgb(255,128,128);fill-rule:nonzero;"/>
        </g>
        <g transform="matrix(1.92826,0,0,1.92826,-2021.28,-818.237)">
            <path d="M2970.2,1851.57C2970.2,1928.43 2883.15,1990.74 2775.77,1990.74C2668.39,1990.74 2581.35,1928.43 2581.35,1851.57C2581.35,1774.71 2668.39,1712.4 2775.77,1712.4C2883.15,1712.4 2970.2,1774.71 2970.2,1851.57Z" style="fill:rgb(255,128,128);fill-rule:nonzero;"/>
        </g>
        <g transform="matrix(1.92826,0,0,1.92826,-2021.28,-818.237)">
            <path d="M2095.06,1758.94L2092.66,1759.32L2092.66,1758.56L2095.06,1758.94Z" style="fill:rgb(81,39,23);fill-rule:nonzero;"/>
        </g>
        <g transform="matrix(1.92826,0,0,1.92826,-2021.28,-818.237)">
            <path d="M2097.41,1758.56L2097.41,1759.32L2095.06,1758.94L2097.41,1758.56Z" style="fill:rgb(81,39,23);fill-rule:nonzero;"/>
        </g>
        <g transform="matrix(1.92826,0,0,1.92826,-2021.28,-818.237)">
            <path d="M2228.72,1780.99C2228.72,1811.18 2188.57,1956.49 2085.55,1956.49C1982.53,1956.49 1941.97,1811.18 1941.97,1780.99L2085.56,1731.39L2228.72,1780.99Z" style="fill:rgb(0,0,114);fill-rule:nonzero;"/>
        </g>
        <g transform="matrix(1.92826,0,0,1.92826,-2021.28,-818.237)">
            <path d="M1963.97,1794.72C1972.27,1835.52 2009.13,1936.33 2085.55,1936.33C2161.73,1936.33 2198.46,1835.5 2206.72,1794.71L2085.55,1752.73L1963.97,1794.72ZM2085.55,1976.66C1964.46,1976.66 1921.8,1815.53 1921.8,1780.98C1921.8,1772.38 1927.25,1764.73 1935.38,1761.92L2078.98,1712.33C2083.24,1710.85 2087.89,1710.85 2092.16,1712.33L2235.32,1761.93C2243.44,1764.74 2248.89,1772.39 2248.89,1780.98C2248.89,1815.53 2206.34,1976.66 2085.55,1976.66Z" style="fill:rgb(0,0,114);fill-rule:nonzero;"/>
        </g>
        <g transform="matrix(1.92826,0,0,1.92826,-2021.28,-818.237)">
            <path d="M2248.22,1753.88C2248.22,1753.88 2265.72,1804.65 2219.9,1830.67C2175.81,1855.72 2123.95,1823.21 2099.54,1804.22C2090.67,1797.31 2085.51,1786.72 2085.51,1775.48L2085.51,1724.12L2085.51,1775.48C2085.51,1786.72 2080.36,1797.31 2071.48,1804.22C2047.08,1823.21 1995.21,1855.72 1951.12,1830.67C1905.31,1804.65 1922.8,1753.88 1922.8,1753.88C1922.8,1753.88 1933.69,1617.98 2085.57,1617.98C2237.45,1617.98 2248.22,1753.88 2248.22,1753.88Z" style="fill:rgb(255,243,233);fill-rule:nonzero;"/>
        </g>
        <g transform="matrix(1.92826,0,0,1.92826,-2021.28,-818.237)">
            <path d="M2246.15,1802.83C2246.16,1802.8 2246.16,1802.77 2246.17,1802.73C2256.83,1778.84 2248.22,1753.88 2248.22,1753.88C2248.22,1753.88 2247.85,1749.16 2246.26,1741.49C2246.26,1741.48 2246.27,1741.47 2246.27,1741.45C2247.86,1749.17 2248.24,1753.87 2248.24,1753.87C2248.24,1753.87 2256.86,1778.91 2246.15,1802.83Z" style="fill:rgb(178,170,197);fill-rule:nonzero;"/>
        </g>
        <g transform="matrix(1.92826,0,0,1.92826,-2021.28,-818.237)">
            <path d="M2187.22,1839.75C2189.13,1839.68 2191.03,1839.55 2192.93,1839.35C2191.03,1839.56 2189.13,1839.69 2187.22,1839.75ZM1982.01,1839.67C1980.6,1839.59 1979.2,1839.47 1977.8,1839.32L1977.8,1839.31C1979.2,1839.47 1980.6,1839.59 1982.01,1839.67ZM2051.44,1818.16C2059.23,1813.37 2066.04,1808.46 2071.48,1804.22C2074.56,1801.83 2077.19,1798.99 2079.31,1795.83C2077.2,1798.98 2074.57,1801.82 2071.5,1804.23C2066.05,1808.46 2059.23,1813.37 2051.44,1818.16ZM2109.36,1811.45C2105.74,1808.93 2102.45,1806.49 2099.55,1804.23C2099.37,1804.09 2099.19,1803.94 2099.01,1803.8C2099.19,1803.94 2099.37,1804.08 2099.54,1804.22C2102.45,1806.48 2105.74,1808.93 2109.36,1811.45ZM2087.77,1788.14C2086.37,1784.35 2085.59,1780.31 2085.51,1776.16L2085.51,1775.48C2085.51,1779.86 2086.3,1784.13 2087.77,1788.14Z" style="fill:rgb(0,0,114);fill-rule:nonzero;"/>
        </g>
        <g transform="matrix(1.92826,0,0,1.92826,-2021.28,-818.237)">
            <path d="M2192.93,1839.35C2202.04,1838.36 2211.13,1835.66 2219.9,1830.67C2233.59,1822.9 2241.63,1812.91 2246.17,1802.73C2246.16,1802.77 2246.16,1802.8 2246.15,1802.83C2241.6,1812.99 2233.57,1822.94 2219.91,1830.7C2211.14,1835.68 2202.05,1838.37 2192.93,1839.35ZM1977.8,1839.32C1968.79,1838.31 1959.82,1835.62 1951.14,1830.7C1941.74,1825.36 1935,1818.97 1930.23,1812.2C1935,1818.96 1941.73,1825.34 1951.12,1830.67C1959.8,1835.6 1968.78,1838.3 1977.8,1839.31L1977.8,1839.32Z" style="fill:rgb(0,0,114);fill-rule:nonzero;"/>
        </g>
        <g transform="matrix(1.92826,0,0,1.92826,-2021.28,-818.237)">
            <path d="M2184.74,1839.78C2156.26,1839.78 2128.3,1824.64 2109.36,1811.45C2105.74,1808.93 2102.45,1806.48 2099.54,1804.22C2099.37,1804.08 2099.19,1803.94 2099.01,1803.8C2093.88,1799.61 2090.02,1794.2 2087.77,1788.14C2086.3,1784.13 2085.51,1779.86 2085.51,1775.48L2085.51,1776.16C2085.5,1775.93 2085.5,1775.7 2085.5,1775.47C2085.5,1782.83 2083.31,1789.88 2079.31,1795.83C2077.19,1798.99 2074.56,1801.83 2071.48,1804.22C2066.04,1808.46 2059.23,1813.37 2051.44,1818.16C2033.35,1829.28 2010.01,1839.78 1986.31,1839.78C1984.87,1839.78 1983.44,1839.75 1982.01,1839.67C1980.6,1839.59 1979.2,1839.47 1977.8,1839.31C1968.78,1838.3 1959.8,1835.6 1951.12,1830.67C1941.73,1825.34 1935,1818.96 1930.23,1812.2C1911.76,1785.96 1922.81,1753.87 1922.81,1753.87C1922.81,1753.87 1923.2,1749.17 1924.78,1741.51C1929.32,1751.73 1937.36,1761.8 1951.14,1769.62C1962.56,1776.11 1974.51,1778.73 1986.36,1778.73C2020.25,1778.73 2053.39,1757.26 2071.5,1743.2C2076.66,1739.16 2080.55,1733.9 2082.91,1727.98C2084.63,1728.67 2085.57,1729.02 2085.57,1729.02C2085.57,1729.02 2086.47,1728.68 2088.13,1728.02C2090.5,1733.92 2094.41,1739.17 2099.55,1743.2C2117.62,1757.26 2150.79,1778.73 2184.69,1778.73C2196.55,1778.73 2208.49,1776.11 2219.91,1769.62C2233.68,1761.81 2241.77,1751.76 2246.26,1741.49C2247.85,1749.16 2248.22,1753.88 2248.22,1753.88C2248.22,1753.88 2256.83,1778.84 2246.17,1802.73C2241.63,1812.91 2233.59,1822.9 2219.9,1830.67C2211.13,1835.66 2202.04,1838.36 2192.93,1839.35C2191.03,1839.55 2189.13,1839.68 2187.22,1839.75C2186.4,1839.77 2185.57,1839.78 2184.74,1839.78Z" style="fill:rgb(178,170,197);fill-rule:nonzero;"/>
        </g>
        <g transform="matrix(1.92826,0,0,1.92826,-2021.28,-818.237)">
            <path d="M2257.6,1750.65C2259.72,1754.5 2261.02,1757.52 2262.3,1761.13C2263.58,1764.61 2264.47,1768.21 2265.2,1771.9C2266.7,1779.26 2266.94,1787.09 2265.95,1795.05C2265.08,1803.03 2262.38,1811.06 2258.5,1818.51C2256.44,1822.18 2254.27,1825.86 2251.54,1829.04C2250.22,1830.67 2248.9,1832.34 2247.48,1833.87L2242.96,1838.11C2230.82,1848.91 2215.53,1856.05 2199.42,1858.81C2183.32,1861.63 2167.38,1859.87 2153.06,1855.96C2138.65,1852.06 2125.49,1846.15 2113.21,1839.31C2107.08,1835.86 2101.14,1832.2 2095.46,1828.21C2092.6,1826.25 2089.81,1824.2 2087.04,1822.11L2085.94,1821.28L2084.47,1820.09C2083.48,1819.3 2082.56,1818.42 2081.62,1817.57C2079.78,1815.83 2078.06,1813.96 2076.45,1811.99C2070.07,1804.1 2065.72,1794.53 2064.15,1784.48C2063.75,1781.98 2063.49,1779.44 2063.43,1776.91L2063.36,1771.62L2063.21,1724.12C2063.17,1711.8 2073.13,1701.78 2085.44,1701.74C2097.76,1701.71 2107.78,1711.66 2107.82,1723.98L2107.82,1724.12L2107.71,1762.12L2107.68,1771.62L2107.62,1776.91C2107.56,1779.44 2107.3,1781.98 2106.9,1784.49C2105.33,1794.54 2100.98,1804.11 2094.6,1812.01C2092.99,1813.97 2091.27,1815.85 2089.42,1817.59C2088.49,1818.44 2087.57,1819.32 2086.57,1820.1L2085.1,1821.3L2084,1822.13C2081.23,1824.22 2078.44,1826.27 2075.58,1828.23C2069.9,1832.22 2063.97,1835.9 2057.84,1839.34C2045.56,1846.19 2032.39,1852.1 2017.98,1856C2003.65,1859.91 1987.71,1861.67 1971.6,1858.85C1955.49,1856.08 1940.2,1848.95 1928.01,1838.18L1923.48,1833.93C1922.06,1832.41 1920.75,1830.72 1919.4,1829.11C1916.65,1825.94 1914.52,1822.23 1912.41,1818.58C1908.54,1811.11 1905.82,1803.07 1904.95,1795.08C1903.89,1787.12 1904.19,1779.26 1905.73,1771.89C1906.48,1768.2 1907.37,1764.6 1908.67,1761.12C1909.97,1757.52 1911.28,1754.49 1913.43,1750.65C1916.12,1745.85 1922.18,1744.14 1926.98,1746.82C1930.04,1748.54 1931.85,1751.63 1932.06,1754.89L1932.18,1757.11L1932.63,1765.12C1932.9,1767.89 1933.11,1770.6 1933.57,1773.23C1934.39,1778.5 1935.73,1783.41 1937.49,1787.78C1940.9,1796.66 1946.26,1802.98 1953.23,1808.31C1960.47,1813.74 1968.95,1817.64 1977.87,1818.78C1986.83,1820.09 1996.68,1818.89 2006.64,1815.8C2016.6,1812.75 2026.61,1807.97 2036.26,1802.17C2041.08,1799.26 2045.81,1796.08 2050.46,1792.72C2052.79,1791.06 2055.07,1789.32 2057.33,1787.55L2058.11,1786.94L2058.47,1786.62C2058.72,1786.43 2058.93,1786.19 2059.16,1785.98C2059.61,1785.53 2060.01,1785.05 2060.41,1784.56C2061.9,1782.56 2062.94,1780.19 2063.23,1777.7C2063.31,1777.08 2063.38,1776.46 2063.36,1775.83L2063.35,1771.62L2063.32,1762.12L2063.21,1724.12L2107.82,1724.12L2107.67,1771.62L2107.65,1775.83C2107.62,1776.46 2107.69,1777.09 2107.77,1777.71C2108.06,1780.2 2109.1,1782.57 2110.6,1784.58C2110.99,1785.07 2111.4,1785.55 2111.85,1785.99C2112.08,1786.2 2112.29,1786.45 2112.54,1786.64L2112.9,1786.96L2113.68,1787.57C2115.94,1789.34 2118.22,1791.08 2120.56,1792.74C2125.2,1796.1 2129.92,1799.3 2134.75,1802.21C2144.39,1808.01 2154.41,1812.79 2164.38,1815.84C2174.34,1818.93 2184.19,1820.13 2193.16,1818.82C2202.08,1817.66 2210.58,1813.78 2217.86,1808.38C2224.86,1803.07 2230.27,1796.72 2233.66,1787.8C2235.49,1783.43 2236.77,1778.5 2237.56,1773.22C2237.99,1770.59 2238.21,1767.88 2238.46,1765.11L2238.85,1757.11L2238.95,1754.97C2239.22,1749.48 2243.89,1745.25 2249.38,1745.52C2252.94,1745.69 2255.98,1747.74 2257.6,1750.65Z" style="fill:rgb(0,0,114);fill-rule:nonzero;"/>
        </g>
        <g transform="matrix(1.92826,0,0,1.92826,-2021.28,-818.237)">
            <path d="M2200.57,1633.75C2178.8,1694.67 2085.57,1729.02 2085.57,1729.02C2085.57,1729.02 1992.33,1694.67 1970.57,1633.75C1955.04,1590.17 2064.73,1583.06 2085.57,1583.06C2106.4,1583.06 2216.1,1590.17 2200.57,1633.75Z" style="fill:rgb(0,0,114);fill-rule:nonzero;"/>
        </g>
        <g transform="matrix(1.92826,0,0,1.92826,-2021.28,-818.237)">
            <path d="M2085.74,1625.87L2085.46,1625.87C2082.89,1625.87 2046.62,1625.61 2037.92,1610.77C2031.48,1599.76 2076.96,1597.97 2085.6,1597.97C2094.24,1597.97 2139.72,1599.76 2133.28,1610.77C2124.58,1625.61 2088.31,1625.87 2085.74,1625.87Z" style="fill:rgb(128,128,185);fill-rule:nonzero;"/>
        </g>
        <g transform="matrix(1.92826,0,0,1.92826,-2021.28,-818.237)">
            <path d="M2085.58,2040.44C2049.96,2040.44 1970.96,2031.6 1977.74,1882.07C1977.74,1882.07 2059.77,1861.96 2085.48,1882C2111.24,1862 2193.17,1882.07 2193.17,1882.07C2200,2031.6 2121.2,2040.44 2085.58,2040.44Z" style="fill:rgb(255,108,108);fill-rule:nonzero;"/>
        </g>
        <g transform="matrix(1.92826,0,0,1.92826,-2021.28,-818.237)">
            <path d="M2085.58,2040.42C2050,2040.42 1971.16,2031.61 1977.74,1882.63C1983.56,1999.63 2052.89,2007.12 2085.58,2007.12C2118.27,2007.12 2187.35,1999.63 2193.17,1882.73C2199.75,2031.66 2121.15,2040.42 2085.58,2040.42Z" style="fill:rgb(255,182,182);fill-rule:nonzero;"/>
        </g>
        <g transform="matrix(1.92826,0,0,1.92826,-2021.28,-818.237)">
            <path d="M1992.24,1894.09C1991.42,1944.67 2001.32,1981.07 2021.71,2002.41C2041.55,2023.16 2067.66,2025.57 2085.58,2025.57C2103.45,2025.57 2129.49,2023.17 2149.26,2002.48C2169.63,1981.16 2179.5,1944.72 2178.67,1894.09C2148.31,1887.99 2106.71,1884.33 2094.6,1893.74C2089.22,1897.92 2081.7,1897.91 2076.34,1893.73C2064.25,1884.31 2022.63,1887.97 1992.24,1894.09ZM2085.58,2055.31C2072.11,2055.31 2031.13,2055.31 2000.21,2022.96C1972.49,1993.96 1959.93,1946.33 1962.88,1881.4C1963.18,1874.81 1967.79,1869.2 1974.2,1867.63C1987.72,1864.31 2051.58,1849.95 2085.49,1864.9C2119.41,1849.98 2183.2,1864.32 2196.71,1867.63C2203.11,1869.2 2207.72,1874.8 2208.03,1881.4C2210.99,1946.39 2198.46,1994.04 2170.76,2023.03C2139.92,2055.31 2099.02,2055.31 2085.58,2055.31Z" style="fill:rgb(0,0,114);fill-rule:nonzero;"/>
        </g>
        <g transform="matrix(1.92826,0,0,1.92826,-2021.28,-818.237)">
            <path d="M2124.75,1888.35C2124.75,1888.35 2097.42,1886.68 2085.33,1945.94C2073.28,1886.68 2045.96,1888.35 2045.96,1888.35L2085.33,1858.84L2124.75,1888.35Z" style="fill:rgb(0,0,114);fill-rule:nonzero;"/>
        </g>
        <g transform="matrix(1.92826,0,0,1.92826,-2021.28,-818.237)">
            <path d="M1761.87,1352.21C1679.84,1335.93 1597.02,1411.37 1576.9,1520.72C1556.78,1630.06 1606.96,1731.9 1689,1748.18C1771.03,1764.46 1853.84,1689.02 1873.97,1579.68C1894.09,1470.33 1843.91,1368.49 1761.87,1352.21Z" style="fill:rgb(0,0,114);fill-rule:nonzero;"/>
        </g>
        <g transform="matrix(1.92826,0,0,1.92826,-2021.28,-818.237)">
            <path d="M1752.45,1397.91C1725.32,1405.32 1711.04,1441.77 1720.56,1479.33C1730.07,1516.88 1759.77,1541.32 1786.89,1533.91C1814.02,1526.51 1828.3,1490.05 1818.78,1452.5C1809.27,1414.94 1779.57,1390.5 1752.45,1397.91Z" style="fill:white;fill-rule:nonzero;"/>
        </g>
        <g transform="matrix(1.92826,0,0,1.92826,-2021.28,-818.237)">
            <path d="M1645.25,1626.39C1632.12,1633.6 1628.98,1654.19 1638.24,1672.37C1647.5,1690.55 1665.65,1699.44 1678.78,1692.23C1691.92,1685.02 1695.05,1664.43 1685.79,1646.25C1676.54,1628.07 1658.38,1619.18 1645.25,1626.39Z" style="fill:rgb(177,153,197);fill-rule:nonzero;"/>
        </g>
        <g transform="matrix(1.92826,0,0,1.92826,-2021.28,-818.237)">
            <path d="M2409,1352.21C2491.03,1335.93 2573.84,1411.37 2593.97,1520.72C2614.09,1630.06 2563.91,1731.9 2481.87,1748.18C2399.84,1764.46 2317.02,1689.02 2296.9,1579.68C2276.78,1470.33 2326.96,1368.49 2409,1352.21Z" style="fill:rgb(0,0,114);fill-rule:nonzero;"/>
        </g>
        <g transform="matrix(1.92826,0,0,1.92826,-2021.28,-818.237)">
            <path d="M2418.42,1397.91C2445.55,1405.32 2459.82,1441.77 2450.31,1479.33C2440.8,1516.88 2411.1,1541.32 2383.98,1533.91C2356.85,1526.51 2342.57,1490.05 2352.09,1452.5C2361.6,1414.94 2391.3,1390.5 2418.42,1397.91Z" style="fill:white;fill-rule:nonzero;"/>
        </g>
        <g transform="matrix(1.92826,0,0,1.92826,-2021.28,-818.237)">
            <path d="M2525.62,1626.39C2538.75,1633.6 2541.88,1654.19 2532.63,1672.37C2523.37,1690.55 2505.21,1699.44 2492.08,1692.23C2478.95,1685.02 2475.82,1664.43 2485.08,1646.25C2494.33,1628.07 2512.49,1619.18 2525.62,1626.39Z" style="fill:rgb(177,153,197);fill-rule:nonzero;"/>
        </g>
    </g>
</svg>
